<svg width="53" height="53" viewBox="0 0 53 53" fill="none" xmlns="http://www.w3.org/2000/svg">
<path fill-rule="evenodd" clip-rule="evenodd" d="M7.79657 7.79657C6.625 8.96815 6.625 10.8538 6.625 14.625V38.375C6.625 42.1462 6.625 44.0319 7.79657 45.2034C8.96815 46.375 10.8538 46.375 14.625 46.375H38.375C42.1462 46.375 44.0319 46.375 45.2034 45.2034C46.375 44.0319 46.375 42.1462 46.375 38.375V14.625C46.375 10.8538 46.375 8.96815 45.2034 7.79657C44.0319 6.625 42.1462 6.625 38.375 6.625H14.625C10.8538 6.625 8.96815 6.625 7.79657 7.79657ZM25.5 15.4583V25.5H15.4583V27.5H25.5V37.5417H27.5V27.5H37.5417V25.5H27.5V15.4583H25.5Z" fill="#222222"/>
</svg>
