<?xml version="1.0" standalone="no"?>
<!DOCTYPE svg PUBLIC "-//W3C//DTD SVG 20010904//EN"
 "http://www.w3.org/TR/2001/REC-SVG-20010904/DTD/svg10.dtd">
<svg version="1.0" xmlns="http://www.w3.org/2000/svg"
 width="4000.000000pt" height="4000.000000pt" viewBox="0 0 4000.000000 4000.000000"
 preserveAspectRatio="xMidYMid meet">

<g transform="translate(0.000000,4000.000000) scale(0.100000,-0.100000)"
fill="#000000" stroke="none">
<path d="M14676 34000 c-70 -27 -132 -91 -171 -175 -75 -163 -216 -658 -276
-972 -12 -68 -25 -123 -28 -123 -9 1 -164 113 -315 227 -164 125 -262 189
-317 208 -134 48 -301 -21 -363 -148 -48 -99 -110 -390 -138 -647 -17 -162
-14 -573 6 -745 l15 -140 -22 -15 c-1069 -728 -1922 -1712 -2432 -2807 -309
-663 -488 -1313 -561 -2027 -20 -203 -29 -712 -15 -900 6 -83 9 -151 8 -152
-1 -1 -29 2 -62 7 -101 15 -380 12 -500 -6 -496 -73 -883 -294 -1164 -665
-371 -489 -501 -1186 -335 -1799 32 -119 99 -308 152 -428 l40 -91 -34 -129
c-45 -171 -88 -392 -114 -593 -28 -209 -38 -661 -21 -872 85 -1023 448 -1775
1222 -2533 1009 -987 2460 -1586 4179 -1725 74 -6 158 -13 185 -15 28 -3 55
-5 61 -5 18 0 54 -327 74 -675 13 -221 13 -873 0 -1101 -20 -360 -73 -850 -94
-870 -6 -6 -47 -23 -91 -38 -190 -66 -460 -190 -641 -297 -783 -461 -1280
-1131 -1448 -1952 -62 -304 -96 -641 -96 -964 0 -428 49 -789 175 -1293 159
-633 444 -1146 869 -1559 53 -52 95 -95 94 -96 -2 -1 -34 -7 -73 -14 -204 -38
-521 -134 -738 -222 -419 -172 -629 -357 -629 -555 -1 -117 73 -221 186 -263
l51 -19 5 -73 c8 -98 42 -171 113 -240 159 -157 348 -178 701 -79 58 17 110
30 115 30 4 0 11 -24 14 -54 12 -121 105 -238 239 -301 159 -76 363 -109 673
-109 215 0 343 11 545 45 438 75 933 261 1337 505 l122 74 123 -30 c747 -180
1167 -38 1168 396 0 156 -51 264 -190 405 -111 113 -212 182 -402 274 -73 36
-137 66 -143 68 -5 2 14 39 42 83 119 187 206 404 282 709 45 182 74 325 146
733 102 577 117 640 185 789 171 368 501 570 1051 638 316 40 1301 21 2079
-40 1285 -101 2075 -391 2657 -974 194 -194 287 -321 569 -776 377 -608 547
-848 808 -1144 60 -69 104 -127 98 -129 -28 -9 -198 -122 -258 -172 -180 -149
-273 -353 -244 -534 39 -243 192 -365 500 -397 170 -18 435 11 691 76 l96 25
119 -72 c401 -241 873 -421 1314 -502 218 -39 342 -50 570 -50 316 0 523 33
676 109 137 67 226 179 241 303 3 28 10 52 14 52 5 0 57 -13 115 -30 346 -97
529 -79 688 69 84 79 126 168 126 271 l0 56 44 12 c67 18 126 69 164 142 32
61 34 70 30 140 -6 93 -30 143 -111 227 -100 105 -252 199 -467 291 -248 106
-550 198 -815 247 -82 16 -151 29 -153 31 -2 1 8 20 21 41 72 114 170 344 221
518 56 195 100 433 128 705 17 163 17 823 0 1025 -66 784 -231 1630 -478 2447
-24 82 -44 152 -44 156 0 5 66 28 148 52 426 125 950 347 1302 551 954 553
1693 1463 2034 2508 87 267 144 520 183 816 25 199 26 704 0 930 -57 502 -168
1007 -465 2130 -72 270 -152 572 -177 672 l-48 182 108 118 c489 534 783 1017
966 1583 29 91 53 166 54 167 1 2 39 -2 84 -9 69 -9 81 -14 75 -27 -56 -130
-99 -310 -110 -457 -18 -253 92 -631 260 -889 63 -97 191 -235 281 -302 136
-103 319 -172 510 -194 363 -43 867 134 1230 432 88 71 253 241 328 336 347
440 577 1048 648 1713 16 149 16 522 0 675 -120 1148 -757 2019 -1801 2463
-131 55 -308 115 -479 162 -79 22 -145 41 -146 43 -1 1 -12 31 -25 67 -33 90
-113 172 -189 194 -30 9 -70 16 -89 16 -82 0 -226 -56 -346 -135 l-51 -34
-165 6 -166 6 -12 66 c-41 214 -181 342 -376 342 -212 0 -417 -150 -723 -531
-83 -103 -86 -104 -171 -140 -623 -261 -1161 -727 -1563 -1353 -70 -109 -76
-115 -143 -152 -196 -107 -508 -307 -776 -498 -85 -61 -438 -323 -785 -583
-657 -492 -1141 -844 -1162 -844 -7 0 -13 9 -13 19 0 27 -63 234 -100 326 -16
41 -30 77 -30 79 0 2 37 9 83 16 604 86 1146 337 1502 695 391 394 587 919
588 1580 0 343 -63 620 -213 932 -250 520 -648 871 -1156 1018 -326 95 -740
80 -1091 -39 l-102 -34 -11 56 c-120 601 -294 1102 -565 1629 -419 813 -1023
1532 -1791 2130 -1086 846 -2486 1383 -3904 1497 -317 26 -406 35 -580 62
-355 54 -828 154 -1181 248 -531 142 -1034 415 -1478 804 -68 60 -119 96 -149
106 -62 22 -156 19 -216 -4z m191 -384 c23 -21 88 -74 144 -118 449 -350 941
-595 1459 -729 658 -170 1287 -281 1750 -309 449 -27 991 -124 1474 -265 820
-238 1548 -600 2221 -1105 710 -532 1287 -1194 1714 -1968 57 -102 174 -342
217 -443 15 -35 33 -79 41 -96 25 -61 5 -33 -46 62 -257 480 -674 1024 -1109
1446 -883 857 -2018 1475 -3257 1774 -455 110 -836 166 -1365 200 -125 8 -816
138 -1480 279 -347 73 -634 183 -935 356 -225 129 -503 333 -672 494 -80 75
-127 98 -180 86 -54 -13 -79 -35 -109 -97 -76 -162 -202 -615 -270 -970 -30
-158 -48 -197 -99 -219 -90 -37 -143 -11 -442 217 -159 122 -279 204 -325 223
-53 22 -72 8 -99 -76 -43 -135 -29 -441 48 -968 19 -135 37 -265 40 -290 l5
-45 -104 -65 c-410 -259 -880 -638 -1249 -1008 -347 -350 -621 -685 -895
-1097 -411 -618 -702 -1275 -878 -1981 -50 -199 -55 -201 -26 -9 262 1709
1275 3259 2812 4304 108 73 143 102 161 136 l24 42 -18 119 c-50 343 -51 710
-3 1014 14 93 63 322 69 328 5 6 107 -66 296 -210 201 -152 281 -202 358 -225
133 -39 288 27 351 149 11 20 36 117 55 215 59 293 123 540 202 776 51 153 40
146 120 73z m5128 -4256 c660 -45 1256 -301 1806 -778 130 -112 387 -374 498
-507 765 -918 1073 -2132 900 -3543 l-12 -94 -61 119 c-105 202 -188 308 -341
433 -359 294 -829 436 -1300 391 -66 -6 -289 -27 -495 -46 -206 -19 -494 -47
-640 -60 -146 -14 -456 -43 -690 -65 -967 -90 -2973 -278 -3041 -286 -53 -5
-60 -4 -105 29 -170 121 -396 176 -678 164 -189 -8 -343 -32 -841 -132 -463
-93 -764 -145 -987 -170 l-147 -17 -133 55 c-555 231 -1238 354 -1842 330
l-169 -6 7 109 c44 690 229 1280 589 1879 176 294 326 486 556 716 178 177
286 266 476 391 635 418 1440 557 2182 377 570 -138 1058 -460 1325 -875 80
-125 154 -316 178 -464 11 -65 18 -80 49 -111 20 -20 54 -42 75 -47 48 -14
126 0 167 29 56 39 61 62 63 283 2 182 5 210 29 301 65 242 169 444 337 654
434 543 1140 893 1898 941 173 11 184 11 347 0z m5611 -2113 c261 -66 468
-183 659 -372 221 -218 390 -520 471 -840 45 -180 58 -307 51 -505 -17 -505
-148 -885 -413 -1200 -234 -278 -627 -505 -1073 -621 -127 -33 -356 -74 -472
-84 l-75 -7 -29 38 c-69 91 -207 209 -305 263 l-54 29 35 6 c19 3 75 10 124
17 113 14 328 68 420 104 435 172 697 440 809 828 64 219 72 485 22 677 -131
504 -524 844 -1003 867 l-123 6 -4 31 c-3 17 -7 103 -10 191 -6 151 -19 329
-32 421 l-6 41 76 32 c88 37 238 78 351 97 54 9 146 12 280 9 174 -3 213 -6
301 -28z m4847 -629 c25 -50 32 -181 18 -308 -15 -131 -63 -370 -96 -475 -30
-97 -31 -134 -5 -184 37 -73 129 -105 207 -72 20 8 79 66 151 150 285 325 679
671 765 671 19 0 19 -6 14 -117 -8 -172 -73 -419 -177 -673 -90 -219 -92 -224
-79 -275 14 -55 71 -111 124 -121 64 -12 104 10 280 151 290 233 478 346 578
349 47 1 52 -2 73 -32 30 -44 48 -157 41 -257 -10 -133 -75 -330 -172 -525
-173 -345 -507 -830 -861 -1250 -39 -47 -76 -95 -83 -107 -18 -35 -13 -114 9
-150 26 -43 48 -56 169 -98 205 -71 384 -178 493 -293 62 -66 118 -157 118
-193 0 -56 -447 -53 -889 6 -63 8 -115 15 -116 15 0 0 5 44 12 98 76 594 -66
1165 -387 1557 -328 400 -849 657 -1388 683 l-134 7 93 115 c89 111 228 295
509 675 363 490 573 703 685 693 23 -2 34 -11 48 -40z m-5655 -498 c261 -33
472 -190 597 -445 64 -129 85 -222 85 -377 0 -347 -128 -608 -381 -778 -96
-64 -116 -72 -99 -41 23 45 50 190 50 276 0 197 -85 363 -259 503 -36 30 -95
68 -131 85 -36 18 -66 33 -68 33 -2 1 3 60 12 131 9 70 20 202 26 293 6 91 13
202 16 248 l6 82 32 0 c17 0 69 -5 114 -10z m7162 -45 c156 -45 162 -48 110
-64 -56 -17 -161 -67 -237 -113 -35 -21 -63 -33 -63 -27 0 6 6 37 14 68 8 31
20 82 26 114 6 31 15 57 20 57 5 0 63 -16 130 -35z m840 -380 c413 -268 756
-692 938 -1158 44 -112 102 -290 102 -310 -1 -6 -22 33 -49 88 -187 389 -472
727 -829 984 -64 46 -152 104 -195 129 -43 25 -80 48 -82 52 -2 4 -9 49 -15
101 -7 52 -22 124 -34 161 l-22 68 45 -27 c25 -14 89 -54 141 -88z m-3744 -73
c-103 -134 -293 -362 -365 -437 -58 -60 -62 -62 -158 -87 -54 -14 -99 -25
-100 -24 -1 1 42 54 96 117 99 114 248 264 351 350 81 69 243 189 248 184 2
-2 -30 -48 -72 -103z m-19011 -365 c56 -12 60 -15 66 -47 10 -47 72 -392 73
-406 1 -6 -80 -52 -179 -102 -197 -100 -391 -213 -552 -324 -445 -306 -789
-710 -1039 -1221 l-48 -99 -14 39 c-33 95 -71 268 -83 378 -14 142 -7 369 16
500 126 721 589 1193 1265 1291 113 16 404 11 495 -9z m11925 -227 c79 -17
255 -72 268 -84 2 -2 -17 -71 -42 -152 -24 -82 -92 -311 -151 -509 -59 -198
-172 -578 -251 -845 -80 -267 -167 -559 -194 -650 -27 -91 -96 -322 -153 -515
-58 -192 -130 -438 -162 -545 -31 -107 -72 -246 -92 -309 l-35 -114 -80 7
c-111 9 -216 30 -336 68 -83 25 -102 35 -96 47 3 9 26 84 50 166 25 83 56 186
69 230 36 122 212 712 315 1060 50 171 118 398 150 505 132 437 152 506 157
525 3 11 25 85 49 165 104 351 215 723 244 823 50 175 38 161 123 153 39 -4
115 -16 167 -26z m-710 -9 c0 -5 -20 -74 -44 -153 -41 -135 -83 -274 -140
-468 -13 -47 -63 -213 -109 -370 -47 -157 -115 -386 -152 -510 -76 -259 -216
-728 -280 -940 -23 -80 -66 -224 -95 -320 -28 -96 -76 -258 -107 -360 -30
-102 -63 -210 -72 -241 l-16 -56 -105 59 c-125 71 -332 207 -421 279 -193 154
-269 219 -269 231 0 12 53 191 515 1743 282 947 302 1016 307 1020 4 4 896 92
956 94 17 0 32 -3 32 -8z m-8810 -186 c190 -21 361 -51 534 -92 l149 -35 -70
-28 c-39 -15 -106 -46 -149 -69 l-78 -42 -90 15 c-212 36 -360 48 -646 53
-433 8 -731 -25 -1121 -123 -321 -80 -547 -164 -864 -319 -676 -331 -1089
-690 -1411 -1223 -58 -96 -38 -46 46 116 149 286 327 530 536 732 130 126 211
191 376 303 641 436 1357 682 2123 731 121 8 534 -4 665 -19z m16820 5 c242
-21 449 -80 649 -186 280 -148 484 -349 620 -613 56 -109 136 -322 129 -343
-2 -6 -17 9 -32 33 -52 78 -194 242 -272 314 -272 250 -574 395 -959 462 -124
21 -469 24 -590 4 -476 -76 -815 -228 -1279 -575 -249 -186 -270 -201 -495
-350 -441 -293 -823 -503 -1290 -710 -186 -83 -221 -97 -221 -92 0 2 55 43
123 91 67 49 399 296 738 550 811 610 1087 806 1380 983 490 295 877 422 1339
440 25 1 97 -3 160 -8z m-10381 -34 c-2 -2 -51 -39 -108 -82 -125 -93 -342
-301 -411 -393 -109 -145 -157 -279 -167 -463 -3 -60 -7 -108 -9 -108 -1 0
-40 9 -86 21 -118 29 -324 36 -444 15 -111 -19 -239 -59 -315 -97 l-57 -28 -7
37 c-13 70 -58 197 -95 273 -43 85 -108 165 -190 235 -50 43 -56 52 -78 128
-13 44 -43 123 -68 175 -24 52 -43 95 -42 97 4 3 1994 191 2042 193 22 0 37
-1 35 -3z m-3000 -26 c83 -24 103 -91 56 -186 -107 -215 -535 -460 -1145 -655
-91 -29 -174 -61 -184 -71 -31 -27 -27 -85 8 -114 15 -13 35 -24 45 -24 33 0
404 98 551 145 499 161 808 344 952 564 53 81 88 179 88 247 l0 45 58 -40
c103 -70 142 -125 142 -197 0 -222 -217 -577 -488 -795 -129 -104 -305 -214
-496 -308 -162 -79 -417 -188 -518 -221 -69 -22 -91 -95 -43 -140 36 -34 65
-30 270 38 458 152 792 317 1028 511 118 96 282 274 357 389 63 95 70 102 70
73 0 -55 -31 -183 -62 -259 -174 -418 -795 -879 -1643 -1219 -88 -35 -172 -76
-186 -90 -38 -35 -55 -103 -40 -153 18 -60 45 -83 185 -155 153 -78 331 -194
410 -265 63 -58 70 -87 41 -158 -43 -101 -137 -142 -382 -164 -331 -29 -1244
76 -1551 178 -506 170 -843 560 -949 1099 -27 137 -24 445 5 581 102 474 371
815 750 951 106 38 226 59 392 68 401 22 741 72 1465 215 576 114 730 135 814
110z m2149 -1315 c35 -8 96 -29 136 -45 l72 -30 28 -88 c133 -406 420 -844
811 -1238 335 -337 682 -590 1090 -794 414 -207 645 -275 980 -287 590 -21
1095 180 1549 617 367 354 589 771 677 1274 10 59 19 120 19 135 0 54 12 56
91 18 240 -115 435 -300 538 -512 148 -300 146 -617 -5 -1022 -81 -217 -245
-498 -396 -678 -99 -119 -262 -275 -372 -357 -412 -308 -1543 -791 -2591
-1108 -1122 -338 -2190 -528 -3445 -610 -265 -18 -1101 -24 -1400 -11 -1035
45 -2050 192 -2608 377 -140 46 -362 155 -487 240 -283 190 -545 459 -704 723
-28 46 -51 91 -51 98 0 25 93 114 156 149 98 55 165 79 476 169 161 47 380
113 486 147 l193 62 57 -33 c101 -58 335 -169 420 -201 418 -152 890 -157
1334 -13 446 145 1015 591 1455 1140 317 396 570 877 688 1308 28 103 42 174
71 372 11 71 232 184 419 213 75 11 230 4 313 -15z m-2735 -1125 c-6 -22 -18
-26 -29 -9 -3 6 0 15 7 20 22 14 28 11 22 -11z m-337 -1093 c7 -1 -15 -89 -57
-232 -38 -126 -74 -246 -79 -266 -9 -33 -14 -37 -62 -47 -132 -29 -488 -46
-502 -24 -7 11 154 545 170 563 12 13 47 15 266 12 139 -2 258 -5 264 -6z
m-1090 -342 c-3 -9 -13 -40 -21 -70 l-16 -55 -37 16 c-20 9 -54 23 -76 31
l-38 16 88 38 c102 43 108 45 100 24z m14257 -1795 c187 -582 282 -1008 318
-1419 15 -174 6 -590 -15 -724 -66 -407 -188 -718 -421 -1072 -378 -574 -899
-967 -1536 -1159 -147 -44 -368 -91 -378 -80 -5 5 -65 131 -134 279 -351 757
-786 1667 -1176 2459 -111 225 -200 411 -198 413 2 1 71 23 153 48 1058 321
2230 822 3139 1341 99 57 183 100 186 96 3 -4 31 -86 62 -182z m-6782 -96
c-96 -196 -117 -245 -101 -241 16 4 10 -14 -37 -101 -593 -1116 -1286 -1920
-2049 -2380 -121 -73 -302 -165 -436 -222 l-97 -41 -53 43 c-29 24 -74 59
-101 77 -26 19 -44 38 -40 41 5 4 46 22 93 40 47 18 146 63 220 100 893 443
1761 1409 2522 2805 l43 79 75 27 c41 15 77 25 79 23 1 -1 -51 -114 -118 -250z
m-6624 -538 c6 -6 28 -51 48 -101 50 -122 237 -493 330 -655 320 -557 702
-989 1125 -1273 58 -39 172 -106 254 -148 l148 -76 -91 -63 c-50 -34 -94 -66
-97 -71 -6 -11 -137 54 -259 128 -516 314 -948 819 -1296 1513 -82 165 -219
468 -219 486 0 3 5 2 10 -1 17 -10 12 6 -40 144 -27 73 -50 134 -50 137 0 9
126 -9 137 -20z m4229 -631 c193 -18 343 -45 529 -92 136 -35 315 -92 403
-130 l44 -19 -119 -129 c-517 -561 -1083 -949 -1607 -1100 l-89 -25 -87 29
c-322 109 -696 115 -1009 16 l-80 -25 -103 39 c-190 71 -370 167 -533 284 -90
66 -190 148 -190 157 0 11 171 157 280 239 517 392 1088 637 1704 731 268 41
587 51 857 25z m1859 -763 c821 -660 1363 -1631 1491 -2672 24 -193 24 -566 1
-720 -85 -549 -320 -997 -733 -1401 -542 -529 -1307 -879 -2225 -1018 -555
-84 -1271 -74 -1803 25 -1387 258 -2346 1060 -2630 2199 -51 203 -68 336 -73
583 -6 258 5 412 42 617 89 483 281 949 568 1385 90 136 167 240 177 240 5 0
37 -24 72 -53 132 -112 314 -236 463 -317 44 -24 82 -45 84 -46 1 -2 -34 -51
-78 -111 -90 -119 -200 -330 -245 -468 -163 -504 -80 -1049 225 -1478 243
-343 604 -576 1032 -669 140 -30 461 -32 612 -4 795 147 1365 831 1365 1640 0
328 -96 640 -284 921 -36 54 -65 99 -63 101 1 1 58 28 127 59 533 244 1068
665 1524 1202 l129 151 71 -51 c39 -28 107 -79 151 -115z m-3105 -937 c435
-70 807 -341 1003 -731 200 -400 189 -886 -30 -1269 -363 -636 -1140 -872
-1793 -545 -303 151 -562 449 -670 770 -64 190 -87 453 -56 640 52 321 200
594 434 804 209 186 464 302 747 339 77 10 279 5 365 -8z m-4703 -8595 c250
-139 532 -234 838 -282 122 -19 182 -22 460 -22 530 -1 814 48 1071 183 l91
48 94 -37 c145 -58 222 -95 312 -149 181 -110 264 -202 273 -302 6 -70 -9 -98
-71 -129 -123 -61 -511 -28 -842 73 l-110 33 -130 -86 c-380 -250 -885 -451
-1333 -529 -318 -56 -699 -56 -918 0 -87 22 -155 64 -160 97 -6 39 38 111 117
191 130 133 328 268 564 387 80 40 110 61 117 80 23 60 -22 112 -85 100 -54
-10 -237 -68 -350 -111 -122 -46 -319 -144 -399 -197 -38 -26 -80 -45 -120
-53 -33 -7 -126 -34 -206 -60 -291 -94 -448 -121 -514 -90 -86 41 -85 101 2
171 82 65 340 235 529 348 151 90 163 100 169 132 8 41 -15 81 -51 90 -14 3
-53 -3 -92 -16 -118 -39 -463 -180 -593 -241 -115 -55 -129 -60 -185 -57 l-60
3 50 38 c28 20 122 73 210 117 309 153 633 249 1060 314 142 22 143 22 262
-44z m13913 36 c207 -33 367 -68 530 -117 256 -76 556 -208 686 -302 l59 -42
-60 -3 c-56 -3 -70 2 -185 56 -130 62 -445 190 -588 239 -76 26 -84 27 -109
13 -15 -9 -32 -28 -37 -43 -20 -55 -3 -72 194 -191 192 -116 316 -197 459
-299 86 -62 119 -107 106 -148 -9 -27 -85 -69 -127 -69 -83 0 -259 43 -498
120 -69 22 -145 43 -168 47 -28 4 -68 22 -110 51 -136 91 -346 184 -586 261
-180 57 -198 60 -230 28 -30 -30 -33 -66 -8 -95 9 -11 69 -47 133 -80 412
-212 726 -501 644 -592 -27 -30 -103 -61 -200 -82 -132 -29 -491 -36 -679 -14
-386 45 -772 161 -1152 347 -150 74 -370 202 -447 261 l-46 35 -108 -32 c-239
-73 -485 -110 -676 -103 -185 7 -247 42 -247 137 1 65 30 123 97 189 72 72
147 121 291 194 l113 57 67 -26 c183 -70 465 -129 732 -154 162 -15 572 -15
725 0 388 39 686 108 944 220 92 40 211 106 251 140 32 26 44 26 230 -3z"/>
<path d="M18255 22272 c-51 -25 -89 -65 -114 -122 -24 -55 -44 -173 -36 -212
12 -54 32 -53 179 5 149 59 178 76 202 112 40 62 19 164 -43 210 -39 28 -136
32 -188 7z"/>
<path d="M17320 22148 c-55 -28 -80 -73 -80 -145 0 -44 5 -58 31 -88 39 -43
90 -59 256 -76 144 -14 158 -9 150 53 -7 52 -57 156 -98 203 -66 75 -172 96
-259 53z"/>
<path d="M18660 21179 c-13 -6 -59 -45 -100 -87 -125 -128 -247 -199 -417
-243 -72 -19 -114 -23 -228 -23 -177 -1 -261 20 -435 106 -75 37 -138 62 -157
62 -44 0 -85 -32 -102 -80 -13 -36 -12 -44 4 -78 24 -51 144 -171 220 -221
455 -299 1112 -142 1331 319 46 97 53 149 24 194 -19 31 -72 63 -102 61 -7 0
-24 -5 -38 -10z"/>
</g>
</svg>
