<svg width="100" height="100" viewBox="0 0 100 100" fill="none" xmlns="http://www.w3.org/2000/svg">
<path d="M12.5 29.1667H82.7C84.3802 29.1667 85.2202 29.1667 85.862 29.4937C86.4265 29.7813 86.8854 30.2402 87.173 30.8047C87.5 31.4465 87.5 32.2865 87.5 33.9667V37.5H12.5V29.1667Z" fill="#222222"/>
<path d="M12.5 45.8333H87.5V78.5333C87.5 80.2135 87.5 81.0536 87.173 81.6953C86.8854 82.2598 86.4265 82.7187 85.862 83.0063C85.2202 83.3333 84.3802 83.3333 82.7 83.3333H17.3C15.6198 83.3333 14.7798 83.3333 14.138 83.0063C13.5735 82.7187 13.1146 82.2598 12.827 81.6953C12.5 81.0536 12.5 80.2135 12.5 78.5333V45.8333Z" fill="#222222"/>
<path d="M12.5 20.6667C12.5 18.7811 12.5 17.8383 13.0858 17.2525C13.6716 16.6667 14.6144 16.6667 16.5 16.6667H40.0098C40.8273 16.6667 41.2361 16.6667 41.6036 16.8189C41.9712 16.9712 42.2602 17.2602 42.8382 17.8383L54.1667 29.1667H12.5V20.6667Z" fill="#222222"/>
</svg>
